<svg width="18" height="18" viewBox="0 0 18 18" fill="none" xmlns="http://www.w3.org/2000/svg">
<path d="M3.19421 12.4451C2.35557 11.0314 2.06187 9.36012 2.36826 7.74515C2.67466 6.13018 3.56006 4.68261 4.85823 3.67425C6.15639 2.6659 7.77801 2.16613 9.41858 2.2688C11.0592 2.37146 12.6058 3.06949 13.7681 4.23181C14.9305 5.39414 15.6285 6.9408 15.7312 8.58137C15.8339 10.2219 15.3341 11.8436 14.3257 13.1417C13.3174 14.4399 11.8698 15.3253 10.2549 15.6317C8.63989 15.9381 6.96862 15.6444 5.55486 14.8058L5.55488 14.8057L3.22356 15.4718C3.12711 15.4994 3.02504 15.5006 2.92793 15.4755C2.83082 15.4503 2.74221 15.3996 2.67128 15.3287C2.60034 15.2578 2.54967 15.1692 2.52451 15.072C2.49935 14.9749 2.50061 14.8729 2.52817 14.7764L3.19426 12.4451L3.19421 12.4451Z" stroke="#9D9CAB" stroke-width="1.2" stroke-linecap="round" stroke-linejoin="round"/>
</svg>
