<svg width="18" height="18" viewBox="0 0 18 18" fill="none" xmlns="http://www.w3.org/2000/svg">
<path opacity="0.2" d="M2.25 7.3125H5.625V14.625H2.25C2.10082 14.625 1.95774 14.5657 1.85225 14.4602C1.74676 14.3548 1.6875 14.2117 1.6875 14.0625V7.875C1.6875 7.72582 1.74676 7.58274 1.85225 7.47725C1.95774 7.37176 2.10082 7.3125 2.25 7.3125Z" fill="white"/>
<path d="M2.25 7.3125H5.625V14.625H2.25C2.10082 14.625 1.95774 14.5657 1.85225 14.4602C1.74676 14.3548 1.6875 14.2117 1.6875 14.0625V7.875C1.6875 7.72582 1.74676 7.58274 1.85225 7.47725C1.95774 7.37176 2.10082 7.3125 2.25 7.3125V7.3125Z" stroke="white" stroke-linecap="round" stroke-linejoin="round"/>
<path d="M5.625 7.3125L8.4375 1.6875C8.73297 1.6875 9.02555 1.7457 9.29854 1.85877C9.57152 1.97184 9.81956 2.13758 10.0285 2.34651C10.2374 2.55544 10.4032 2.80348 10.5162 3.07646C10.6293 3.34944 10.6875 3.64203 10.6875 3.9375V5.625H15.0381C15.1976 5.625 15.3553 5.65892 15.5007 5.72452C15.6461 5.79012 15.7759 5.88589 15.8815 6.00547C15.9871 6.12506 16.066 6.26573 16.1131 6.41815C16.1601 6.57057 16.1742 6.73125 16.1544 6.88954L15.3107 13.6395C15.2767 13.9116 15.1445 14.1619 14.9389 14.3434C14.7333 14.5249 14.4686 14.625 14.1944 14.625H5.625" stroke="white" stroke-linecap="round" stroke-linejoin="round"/>
</svg>
