<svg width="14" height="14" viewBox="0 0 14 14" fill="none" xmlns="http://www.w3.org/2000/svg">
<path d="M12.9657 6.12736L2.40853 0.215369C2.2309 0.115904 2.02714 0.0730235 1.82448 0.0924587C1.62183 0.111894 1.42993 0.192719 1.27444 0.324132C1.11895 0.455545 1.00727 0.631285 0.954326 0.827866C0.901385 1.02445 0.909704 1.2325 0.97817 1.42423L2.79091 6.49992H7.50045C7.63306 6.49992 7.76023 6.55259 7.854 6.64636C7.94777 6.74013 8.00045 6.86731 8.00045 6.99992C8.00045 7.13252 7.94777 7.2597 7.854 7.35347C7.76023 7.44724 7.63306 7.49992 7.50045 7.49992H2.79091L0.97817 12.5756C0.92458 12.7265 0.907908 12.888 0.929551 13.0466C0.951193 13.2053 1.01052 13.3564 1.10256 13.4874C1.19461 13.6185 1.3167 13.7255 1.45861 13.7997C1.60052 13.8738 1.75812 13.9129 1.91823 13.9136C2.09005 13.9133 2.25891 13.8688 2.40859 13.7845L12.9657 7.87247C13.1208 7.78561 13.2499 7.65898 13.3398 7.50561C13.4297 7.35225 13.4771 7.1777 13.4771 6.99993C13.4771 6.82217 13.4297 6.64761 13.3398 6.49424C13.2499 6.34087 13.1208 6.21423 12.9657 6.12736Z" fill="#F5F5F6"/>
</svg>
