<svg width="14" height="14" viewBox="0 0 14 14" fill="none" xmlns="http://www.w3.org/2000/svg">
<path d="M13.5248 6.82226C13.5056 6.77905 13.0425 5.75169 12.0125 4.72165C10.6407 3.34971 8.90737 2.62451 6.99999 2.62451C5.0926 2.62451 3.35926 3.34971 1.98748 4.72165C0.957497 5.75169 0.494417 6.77905 0.475191 6.82226C0.45034 6.8782 0.4375 6.93873 0.4375 6.99994C0.4375 7.06115 0.45034 7.12168 0.475191 7.17762C0.494417 7.22088 0.957552 8.24798 1.98754 9.27785C3.35932 10.6495 5.0926 11.3745 6.99999 11.3745C8.90737 11.3745 10.6407 10.6495 12.0124 9.27786C13.0424 8.24798 13.5056 7.22088 13.5248 7.17762C13.5496 7.12168 13.5625 7.06115 13.5625 6.99994C13.5625 6.93873 13.5496 6.8782 13.5248 6.82226ZM6.99999 5.03124C7.38937 5.03124 7.77001 5.14671 8.09377 5.36304C8.41753 5.57937 8.66986 5.88684 8.81887 6.24658C8.96788 6.60633 9.00687 7.00218 8.93091 7.38408C8.85494 7.76598 8.66744 8.11677 8.3921 8.39211C8.11677 8.66744 7.76597 8.85495 7.38407 8.93091C7.00217 9.00688 6.60632 8.96789 6.24658 8.81888C5.88684 8.66987 5.57936 8.41753 5.36303 8.09377C5.1467 7.77001 5.03124 7.38937 5.03124 6.99999C5.03182 6.47803 5.23943 5.97761 5.60852 5.60853C5.9776 5.23944 6.47802 5.03183 6.99999 5.03124Z" fill="#6C6B84" fill-opacity="0.5"/>
</svg>
