<svg width="20" height="20" viewBox="0 0 20 20" fill="none" xmlns="http://www.w3.org/2000/svg">
<path d="M17.1875 13.6977V6.30201C17.1875 6.19133 17.1581 6.08264 17.1023 5.98704C17.0466 5.89144 16.9664 5.81237 16.87 5.75791L10.3075 2.04867C10.2137 1.99564 10.1078 1.96777 10 1.96777C9.89223 1.96777 9.78629 1.99564 9.69246 2.04867L3.12996 5.75791C3.03361 5.81237 2.95345 5.89144 2.89767 5.98704C2.84189 6.08264 2.8125 6.19133 2.8125 6.30201V13.6977C2.8125 13.8084 2.84189 13.9171 2.89767 14.0127C2.95345 14.1083 3.03361 14.1873 3.12996 14.2418L9.69246 17.951C9.78629 18.0041 9.89223 18.0319 10 18.0319C10.1078 18.0319 10.2137 18.0041 10.3075 17.951L16.87 14.2418C16.9664 14.1873 17.0466 14.1083 17.1023 14.0127C17.1581 13.9171 17.1875 13.8084 17.1875 13.6977V13.6977Z" stroke="#125BFF" stroke-width="1.5" stroke-linecap="round" stroke-linejoin="round"/>
<path d="M10 12.8125C11.5533 12.8125 12.8125 11.5533 12.8125 10C12.8125 8.4467 11.5533 7.1875 10 7.1875C8.4467 7.1875 7.1875 8.4467 7.1875 10C7.1875 11.5533 8.4467 12.8125 10 12.8125Z" stroke="#125BFF" stroke-width="1.5" stroke-linecap="round" stroke-linejoin="round"/>
</svg>
