<svg width="48" height="48" viewBox="0 0 48 48" fill="none" xmlns="http://www.w3.org/2000/svg">
<path d="M24 30.75C28.5563 30.75 32.25 27.0563 32.25 22.5C32.25 17.9437 28.5563 14.25 24 14.25C19.4437 14.25 15.75 17.9437 15.75 22.5C15.75 27.0563 19.4437 30.75 24 30.75Z" fill="#125BFF"/>
<path d="M24 4.5C20.1433 4.5 16.3731 5.64366 13.1664 7.78634C9.95963 9.92903 7.46027 12.9745 5.98436 16.5377C4.50845 20.1008 4.12228 24.0216 4.8747 27.8043C5.62711 31.5869 7.4843 35.0615 10.2114 37.7886C12.9386 40.5157 16.4131 42.3729 20.1957 43.1253C23.9784 43.8777 27.8992 43.4916 31.4623 42.0157C35.0255 40.5397 38.071 38.0404 40.2137 34.8336C42.3564 31.6269 43.5 27.8567 43.5 24C43.4942 18.8301 41.4378 13.8736 37.7821 10.2179C34.1264 6.56219 29.1699 4.50585 24 4.5ZM36.3296 34.9519C35.1255 33.2074 33.564 31.7389 31.7488 30.6442C29.6616 32.6376 26.8863 33.75 24 33.75C21.1137 33.75 18.3385 32.6376 16.2512 30.6442C14.436 31.739 12.8745 33.2074 11.6703 34.9519C9.55628 32.5747 8.17449 29.6371 7.69135 26.4928C7.20822 23.3485 7.64434 20.1316 8.94719 17.2294C10.25 14.3272 12.3641 11.8635 15.0347 10.135C17.7054 8.40653 20.8188 7.48691 24 7.48691C27.1812 7.48691 30.2946 8.40653 32.9652 10.135C35.6359 11.8635 37.7499 14.3272 39.0528 17.2294C40.3556 20.1316 40.7918 23.3485 40.3086 26.4928C39.8255 29.6371 38.4437 32.5747 36.3296 34.9519Z" fill="#125BFF"/>
</svg>
