<svg width="24" height="24" viewBox="0 0 24 24" fill="none" xmlns="http://www.w3.org/2000/svg">
<path d="M23.1845 11.6961C23.1515 11.6221 22.3577 9.86097 20.592 8.0951C18.2404 5.7432 15.2689 4.50001 11.9991 4.50001C11.3083 4.49924 10.6186 4.55546 9.93707 4.6681C9.80415 4.69029 9.67967 4.74788 9.5767 4.83482C9.47374 4.92176 9.3961 5.03483 9.35194 5.16216C9.30779 5.28948 9.29876 5.42634 9.3258 5.55836C9.35283 5.69038 9.41494 5.81268 9.50558 5.91239L19.0016 16.358C19.1348 16.5045 19.3205 16.5923 19.5182 16.6025C19.7159 16.6126 19.9096 16.5442 20.057 16.4121C22.1957 14.4965 23.1451 12.394 23.1845 12.3053C23.2271 12.2094 23.2491 12.1057 23.2491 12.0007C23.2491 11.8958 23.2271 11.792 23.1845 11.6961Z" fill="#9D9CAB"/>
<path d="M5.05497 3.24551C4.92116 3.09832 4.73435 3.01031 4.53565 3.00085C4.33695 2.99139 4.14262 3.06125 3.99543 3.19506C3.84824 3.32888 3.76023 3.51568 3.75077 3.71439C3.74131 3.91309 3.81117 4.10741 3.94498 4.2546L5.74885 6.23882C2.34375 8.3286 0.879822 11.5496 0.814613 11.6962C0.772012 11.7921 0.75 11.8959 0.75 12.0008C0.75 12.1057 0.772012 12.2095 0.814613 12.3054C0.847573 12.3795 1.64152 14.1403 3.4072 15.9058C5.75883 18.2571 8.73017 19.5001 12 19.5001C13.6805 19.5098 15.344 19.1637 16.8811 18.4844L18.945 20.7546C19.0788 20.9018 19.2656 20.9898 19.4643 20.9993C19.663 21.0087 19.8573 20.9389 20.0045 20.805C20.1517 20.6712 20.2397 20.4844 20.2492 20.2857C20.2586 20.087 20.1888 19.8927 20.055 19.7455L5.05497 3.24551ZM12 15.3751C11.3831 15.3753 10.778 15.2065 10.2504 14.8868C9.72284 14.5671 9.29301 14.109 9.00765 13.5621C8.7223 13.0152 8.59235 12.4005 8.63193 11.7849C8.67152 11.1693 8.87913 10.5764 9.23218 10.0705L13.6576 14.9385C13.1522 15.2251 12.581 15.3756 12 15.3751Z" fill="#9D9CAB"/>
</svg>
