<svg width="20" height="20" viewBox="0 0 20 20" fill="none" xmlns="http://www.w3.org/2000/svg">
<path d="M18.7511 10.1944C18.7511 9.47495 18.6915 8.94995 18.5626 8.40552H10.1797V11.6527H15.1003C15.0011 12.4597 14.4654 13.675 13.2749 14.4916L13.2582 14.6003L15.9087 16.6126L16.0924 16.6305C17.7788 15.1041 18.7511 12.8583 18.7511 10.1944Z" fill="#4285F4"/>
<path d="M10.1793 18.7499C12.59 18.7499 14.6138 17.972 16.092 16.6304L13.2745 14.4914C12.5206 15.0067 11.5086 15.3664 10.1793 15.3664C7.81822 15.3664 5.81427 13.8401 5.09992 11.7303L4.99522 11.7391L2.23917 13.8294L2.20312 13.9276C3.67136 16.7859 6.68723 18.7499 10.1793 18.7499Z" fill="#34A853"/>
<path d="M5.09916 11.7304C4.91068 11.1859 4.80159 10.6025 4.80159 9.99979C4.80159 9.39698 4.91068 8.81367 5.08925 8.26923L5.08425 8.15328L2.29366 6.02942L2.20236 6.07198C1.59723 7.25811 1.25 8.59008 1.25 9.99979C1.25 11.4095 1.59723 12.7414 2.20236 13.9275L5.09916 11.7304Z" fill="#FBBC05"/>
<path d="M10.1794 4.63331C11.8559 4.63331 12.9868 5.34303 13.6317 5.93613L16.1516 3.525C14.604 2.11528 12.59 1.25 10.1794 1.25C6.68725 1.25 3.67137 3.21387 2.20312 6.07218L5.09002 8.26944C5.8143 6.15972 7.81825 4.63331 10.1794 4.63331Z" fill="#EB4335"/>
</svg>
