<svg width="18" height="18" viewBox="0 0 18 18" fill="none" xmlns="http://www.w3.org/2000/svg">
<path d="M9 15.75C12.7279 15.75 15.75 12.7279 15.75 9C15.75 5.27208 12.7279 2.25 9 2.25C5.27208 2.25 2.25 5.27208 2.25 9C2.25 12.7279 5.27208 15.75 9 15.75Z" stroke="#9D9CAB" stroke-linecap="round" stroke-linejoin="round"/>
<path d="M8.96875 13C9.24489 13 9.46875 12.7761 9.46875 12.5C9.46875 12.2239 9.24489 12 8.96875 12C8.69261 12 8.46875 12.2239 8.46875 12.5C8.46875 12.7761 8.69261 13 8.96875 13Z" fill="#9D9CAB"/>
<path d="M8.96875 10.5V9.9375C9.35813 9.9375 9.73877 9.82204 10.0625 9.60571C10.3863 9.38938 10.6386 9.0819 10.7876 8.72216C10.9366 8.36242 10.9756 7.96657 10.8997 7.58467C10.8237 7.20277 10.6362 6.85197 10.3609 6.57663C10.0855 6.3013 9.73473 6.11379 9.35283 6.03783C8.97093 5.96187 8.57508 6.00085 8.21534 6.14986C7.8556 6.29887 7.54812 6.55121 7.33179 6.87497C7.11547 7.19873 7 7.57937 7 7.96875" stroke="#9D9CAB" stroke-linecap="round" stroke-linejoin="round"/>
</svg>
