<svg width="72" height="72" viewBox="0 0 72 72" fill="none" xmlns="http://www.w3.org/2000/svg">
<path d="M58.5 24.75H13.5C12.2574 24.75 11.25 25.7574 11.25 27V58.5C11.25 59.7426 12.2574 60.75 13.5 60.75H58.5C59.7426 60.75 60.75 59.7426 60.75 58.5V27C60.75 25.7574 59.7426 24.75 58.5 24.75Z" stroke="#18171C" stroke-width="4" stroke-linecap="round" stroke-linejoin="round"/>
<path d="M25.875 24.75V14.625C25.875 11.9397 26.9417 9.36435 28.8405 7.46554C30.7394 5.56674 33.3147 4.5 36 4.5C38.6853 4.5 41.2606 5.56674 43.1595 7.46554C45.0583 9.36435 46.125 11.9397 46.125 14.625V24.75" stroke="#18171C" stroke-width="4" stroke-linecap="round" stroke-linejoin="round"/>
<path d="M36 47C38.2091 47 40 45.2091 40 43C40 40.7909 38.2091 39 36 39C33.7909 39 32 40.7909 32 43C32 45.2091 33.7909 47 36 47Z" fill="#18171C"/>
</svg>
