<svg width="24" height="24" viewBox="0 0 24 24" fill="none" xmlns="http://www.w3.org/2000/svg">
<path d="M0 12C0 5.37258 5.37258 0 12 0C18.6274 0 24 5.37258 24 12C24 18.6274 18.6274 24 12 24C5.37258 24 0 18.6274 0 12Z" fill="#FCC400"/>
<path d="M19.817 9.84924C19.7467 9.62876 19.6117 9.43455 19.4294 9.29198C19.2472 9.1494 19.0262 9.06507 18.7952 9.04999L14.6193 8.75775L13.0703 4.85706C12.9864 4.64141 12.8394 4.45611 12.6485 4.32545C12.4575 4.19479 12.2316 4.12486 12.0002 4.12482H11.9991C11.7681 4.12523 11.5426 4.19534 11.3521 4.32598C11.1615 4.45662 11.0149 4.64172 10.9312 4.85706L9.35908 8.78027L5.20625 9.04999C4.97534 9.06507 4.75433 9.1494 4.57207 9.29198C4.38981 9.43455 4.25475 9.62876 4.18452 9.84924C4.11043 10.0729 4.10539 10.3136 4.17006 10.5401C4.23472 10.7667 4.3661 10.9685 4.54707 11.1193L7.74189 13.8197L6.79158 17.5578C6.72607 17.8096 6.73812 18.0753 6.82614 18.3201C6.91415 18.565 7.07404 18.7775 7.28486 18.93C7.48841 19.0781 7.73182 19.1615 7.98341 19.1693C8.23501 19.1771 8.48314 19.1091 8.69551 18.9739L11.9914 16.886C11.9958 16.8827 12.0002 16.8805 12.0101 16.886L15.5565 19.1327C15.749 19.2557 15.9742 19.3177 16.2025 19.3107C16.4309 19.3036 16.6518 19.2278 16.8364 19.0931C17.0274 18.9551 17.1723 18.7625 17.2521 18.5407C17.3319 18.3189 17.3428 18.0782 17.2835 17.85L16.2739 13.7664L19.4544 11.1193C19.6354 10.9685 19.7668 10.7667 19.8314 10.5401C19.8961 10.3136 19.8911 10.0729 19.817 9.84924Z" fill="white"/>
</svg>
