<svg width="21" height="20" viewBox="0 0 21 20" fill="none" xmlns="http://www.w3.org/2000/svg">
<g clip-path="url(#clip0)">
<path d="M6.86315 18.0763C14.3605 18.0763 18.4605 11.87 18.4605 6.48803C18.4605 6.31175 18.4569 6.13627 18.449 5.96158C19.2448 5.38668 19.9366 4.66925 20.4822 3.85255C19.7518 4.17693 18.9659 4.39529 18.1414 4.49375C18.983 3.98953 19.629 3.1919 19.9338 2.24104C19.1463 2.70755 18.2742 3.04661 17.3456 3.22967C16.6018 2.43802 15.5428 1.94287 14.3703 1.94287C12.1194 1.94287 10.294 3.76685 10.294 6.01517C10.294 6.33477 10.3298 6.64565 10.3997 6.94384C7.01207 6.77352 4.00814 5.15284 1.99774 2.68849C1.64768 3.29038 1.44584 3.98955 1.44584 4.73557C1.44584 6.1486 2.16544 7.39603 3.2597 8.12579C2.59097 8.10515 1.96277 7.92171 1.4137 7.6164C1.4131 7.63349 1.4131 7.65015 1.4131 7.66841C1.4131 9.64088 2.8181 11.2877 4.68317 11.6609C4.34066 11.7542 3.9803 11.8042 3.60837 11.8042C3.34613 11.8042 3.09063 11.7784 2.8423 11.7308C3.36122 13.3491 4.86597 14.5267 6.64997 14.5596C5.2549 15.6522 3.4975 16.303 1.5875 16.303C1.2589 16.303 0.934281 16.2843 0.615234 16.2466C2.41917 17.4019 4.56117 18.0761 6.86337 18.0761" fill="#1DA1F2"/>
</g>
<defs>
<clipPath id="clip0">
<rect width="20" height="20" fill="white" transform="translate(0.5)"/>
</clipPath>
</defs>
</svg>
