<svg width="14" height="14" viewBox="0 0 14 14" fill="none" xmlns="http://www.w3.org/2000/svg">
<path d="M4.8125 8.75C6.38306 8.75 7.65625 7.47681 7.65625 5.90625C7.65625 4.33569 6.38306 3.0625 4.8125 3.0625C3.24194 3.0625 1.96875 4.33569 1.96875 5.90625C1.96875 7.47681 3.24194 8.75 4.8125 8.75Z" stroke="#222024" stroke-miterlimit="10"/>
<path d="M8.5 3.16847C8.89114 3.05827 9.30135 3.03316 9.703 3.09485C10.1047 3.15653 10.4884 3.30357 10.8285 3.52606C11.1685 3.74855 11.4569 4.04133 11.6743 4.38468C11.8917 4.72802 12.0329 5.11396 12.0886 5.51649C12.1442 5.91903 12.113 6.32882 11.9969 6.71825C11.8808 7.10769 11.6827 7.46774 11.4157 7.77414C11.1488 8.08054 10.8193 8.32618 10.4495 8.49452C10.0796 8.66286 9.67798 8.74999 9.27162 8.75004" stroke="#222024" stroke-linecap="round" stroke-linejoin="round"/>
<path d="M0.875 10.7951C1.31914 10.1634 1.90875 9.64777 2.59407 9.29181C3.2794 8.93586 4.0403 8.75003 4.81255 8.75C5.58479 8.74997 6.34571 8.93575 7.03106 9.29165C7.71641 9.64754 8.30607 10.1631 8.75025 10.7948" stroke="#222024" stroke-linecap="round" stroke-linejoin="round"/>
<path d="M9.27148 8.75C10.0438 8.74944 10.8049 8.93499 11.4903 9.29093C12.1757 9.64688 12.7652 10.1627 13.209 10.7948" stroke="#222024" stroke-linecap="round" stroke-linejoin="round"/>
</svg>
