<svg width="18" height="18" viewBox="0 0 18 18" fill="none" xmlns="http://www.w3.org/2000/svg">
<path d="M9.0014 16.7143C13.2619 16.7143 16.7157 13.2605 16.7157 8.99999C16.7157 4.73951 13.2619 1.28571 9.0014 1.28571C4.74091 1.28571 1.28711 4.73951 1.28711 8.99999C1.28711 13.2605 4.74091 16.7143 9.0014 16.7143Z" stroke="#9D9CAB" stroke-miterlimit="10"/>
<path d="M9.0014 11.5713C10.7766 11.5713 12.2157 10.1322 12.2157 8.35705C12.2157 6.58185 10.7766 5.14276 9.0014 5.14276C7.22619 5.14276 5.78711 6.58185 5.78711 8.35705C5.78711 10.1322 7.22619 11.5713 9.0014 11.5713Z" stroke="#9D9CAB" stroke-miterlimit="10"/>
<path d="M3.8418 14.7355C4.32604 13.7834 5.06429 12.9839 5.97482 12.4255C6.88535 11.867 7.93265 11.5715 9.00079 11.5715C10.0689 11.5715 11.1162 11.867 12.0268 12.4255C12.9373 12.9839 13.6755 13.7834 14.1598 14.7354" stroke="#9D9CAB" stroke-linecap="round" stroke-linejoin="round"/>
</svg>
