<svg width="12" height="12" viewBox="0 0 12 12" fill="none" xmlns="http://www.w3.org/2000/svg">
<path d="M11.098 8.81103L6.97442 1.68603C6.87549 1.5154 6.73347 1.37376 6.56257 1.27529C6.39167 1.17683 6.1979 1.125 6.00066 1.125C5.80343 1.125 5.60965 1.17683 5.43875 1.27529C5.26786 1.37376 5.12583 1.5154 5.02691 1.68603V1.6864L0.903372 8.81103C0.804369 8.98201 0.752145 9.17605 0.751954 9.37363C0.751762 9.5712 0.803611 9.76534 0.902282 9.93651C1.00095 10.1077 1.14297 10.2499 1.31403 10.3487C1.4851 10.4476 1.67919 10.4996 1.87676 10.4996H10.1246C10.3221 10.4996 10.5162 10.4476 10.6873 10.3487C10.8584 10.2499 11.0004 10.1077 11.099 9.93651C11.1977 9.76534 11.2496 9.5712 11.2494 9.37363C11.2492 9.17605 11.197 8.98201 11.098 8.81103ZM5.6253 4.875C5.6253 4.77554 5.6648 4.68016 5.73513 4.60983C5.80546 4.53951 5.90084 4.5 6.0003 4.5C6.09975 4.5 6.19513 4.53951 6.26546 4.60983C6.33579 4.68016 6.3753 4.77554 6.3753 4.875V6.75C6.3753 6.84945 6.33579 6.94484 6.26546 7.01516C6.19513 7.08549 6.09975 7.125 6.0003 7.125C5.90084 7.125 5.80546 7.08549 5.73513 7.01516C5.6648 6.94484 5.6253 6.84945 5.6253 6.75V4.875ZM6.00057 9.00013C5.88932 9.00013 5.78056 8.96714 5.68806 8.90533C5.59556 8.84353 5.52346 8.75568 5.48089 8.65289C5.43831 8.55011 5.42717 8.43701 5.44888 8.3279C5.47058 8.21878 5.52416 8.11855 5.60282 8.03989C5.68149 7.96122 5.78172 7.90765 5.89083 7.88594C5.99995 7.86424 6.11305 7.87538 6.21583 7.91795C6.31861 7.96053 6.40646 8.03262 6.46827 8.12513C6.53008 8.21763 6.56307 8.32638 6.56307 8.43763C6.56306 8.58682 6.5038 8.72989 6.39831 8.83537C6.29282 8.94086 6.14975 9.00013 6.00057 9.00013Z" fill="#FF4C4C"/>
</svg>
