<svg width="14" height="14" viewBox="0 0 14 14" fill="none" xmlns="http://www.w3.org/2000/svg">
<path d="M12.4688 10.9375H12.0312V2.1875C12.0312 2.07147 11.9852 1.96019 11.9031 1.87814C11.8211 1.7961 11.7098 1.75 11.5938 1.75H8.53125C8.41522 1.75 8.30394 1.7961 8.22189 1.87814C8.13985 1.96019 8.09375 2.07147 8.09375 2.1875V4.375H5.46875C5.35272 4.375 5.24144 4.4211 5.15939 4.50314C5.07735 4.58519 5.03125 4.69647 5.03125 4.8125V7H2.40625C2.29022 7 2.17894 7.0461 2.09689 7.12814C2.01485 7.21019 1.96875 7.32147 1.96875 7.4375V10.9375H1.53125C1.41522 10.9375 1.30394 10.9836 1.22189 11.0656C1.13984 11.1477 1.09375 11.259 1.09375 11.375C1.09375 11.491 1.13984 11.6023 1.22189 11.6844C1.30394 11.7664 1.41522 11.8125 1.53125 11.8125H12.4688C12.5848 11.8125 12.6961 11.7664 12.7781 11.6844C12.8602 11.6023 12.9062 11.491 12.9062 11.375C12.9062 11.259 12.8602 11.1477 12.7781 11.0656C12.6961 10.9836 12.5848 10.9375 12.4688 10.9375ZM5.90625 5.25H8.09375V10.9375H5.90625V5.25ZM2.84375 7.875H5.03125V10.9375H2.84375V7.875Z" fill="#18171C"/>
</svg>
