<svg width="24" height="14" viewBox="0 0 24 14" fill="none" xmlns="http://www.w3.org/2000/svg">
<path d="M6.786 10.325L6.775 6.871L5.081 9.654H4.3L2.617 6.981V10.325H1V4H2.452L4.718 7.674L6.929 4H8.392L8.414 10.325H6.786ZM9.59864 4H12.5796C13.2983 4 13.929 4.12833 14.4716 4.385C15.0143 4.64167 15.4323 5.00833 15.7256 5.485C16.0263 5.96167 16.1766 6.52267 16.1766 7.168C16.1766 7.806 16.0263 8.36333 15.7256 8.84C15.4323 9.31667 15.0143 9.68333 14.4716 9.94C13.929 10.1967 13.2983 10.325 12.5796 10.325H9.59864V4ZM12.5246 8.961C13.1113 8.961 13.5733 8.807 13.9106 8.499C14.248 8.18367 14.4166 7.74 14.4166 7.168C14.4166 6.596 14.248 6.15233 13.9106 5.837C13.5733 5.52167 13.1113 5.364 12.5246 5.364H11.3366V8.961H12.5246ZM16.9082 4H19.8892C20.6079 4 21.2385 4.12833 21.7812 4.385C22.3239 4.64167 22.7419 5.00833 23.0352 5.485C23.3359 5.96167 23.4862 6.52267 23.4862 7.168C23.4862 7.806 23.3359 8.36333 23.0352 8.84C22.7419 9.31667 22.3239 9.68333 21.7812 9.94C21.2385 10.1967 20.6079 10.325 19.8892 10.325H16.9082V4ZM19.8342 8.961C20.4209 8.961 20.8829 8.807 21.2202 8.499C21.5576 8.18367 21.7262 7.74 21.7262 7.168C21.7262 6.596 21.5576 6.15233 21.2202 5.837C20.8829 5.52167 20.4209 5.364 19.8342 5.364H18.6462V8.961H19.8342Z" fill="#18171C"/>
</svg>
