<svg width="32" height="32" viewBox="0 0 32 32" fill="none" xmlns="http://www.w3.org/2000/svg">
<path d="M27.9314 14.255L6.81706 2.43098C6.46179 2.23205 6.05427 2.14629 5.64896 2.18516C5.24365 2.22403 4.85986 2.38568 4.54888 2.64851C4.23789 2.91133 4.01454 3.26281 3.90865 3.65598C3.80277 4.04914 3.81941 4.46525 3.95634 4.84871L7.58183 15.0001H17.0009C17.2661 15.0001 17.5205 15.1054 17.708 15.293C17.8955 15.4805 18.0009 15.7349 18.0009 16.0001C18.0009 16.2653 17.8955 16.5196 17.708 16.7072C17.5205 16.8947 17.2661 17.0001 17.0009 17.0001H7.58183L3.95634 27.1514C3.84916 27.4532 3.81582 27.7762 3.8591 28.0935C3.90239 28.4108 4.02104 28.7131 4.20513 28.9751C4.38922 29.2372 4.63339 29.4513 4.91721 29.5996C5.20103 29.7478 5.51624 29.826 5.83647 29.8275C6.1801 29.8268 6.51781 29.7379 6.81718 29.5692L27.9313 17.7452C28.2415 17.5715 28.4998 17.3182 28.6796 17.0115C28.8594 16.7047 28.9541 16.3556 28.9541 16.0001C28.9542 15.6446 28.8594 15.2955 28.6796 14.9887C28.4999 14.682 28.2416 14.4287 27.9314 14.255Z" fill="#9D9CAB"/>
</svg>
