<svg width="26" height="28" viewBox="0 0 26 28" fill="none" xmlns="http://www.w3.org/2000/svg">
<path d="M24.9314 12.255L3.81706 0.430983C3.46179 0.232052 3.05427 0.146291 2.64896 0.185162C2.24365 0.224032 1.85986 0.385682 1.54888 0.648508C1.23789 0.911333 1.01454 1.26281 0.908653 1.65598C0.80277 2.04914 0.819407 2.46525 0.956341 2.84871L4.58183 13.0001H14.0009C14.2661 13.0001 14.5205 13.1054 14.708 13.293C14.8955 13.4805 15.0009 13.7349 15.0009 14.0001C15.0009 14.2653 14.8955 14.5196 14.708 14.7072C14.5205 14.8947 14.2661 15.0001 14.0009 15.0001H4.58183L0.956341 25.1514C0.84916 25.4532 0.815817 25.7762 0.859101 26.0935C0.902385 26.4108 1.02104 26.7131 1.20513 26.9751C1.38922 27.2372 1.63339 27.4513 1.91721 27.5996C2.20103 27.7478 2.51624 27.826 2.83647 27.8275C3.1801 27.8268 3.51781 27.7379 3.81718 27.5692L24.9313 15.7452C25.2415 15.5715 25.4998 15.3182 25.6796 15.0115C25.8594 14.7047 25.9541 14.3556 25.9541 14.0001C25.9542 13.6446 25.8594 13.2955 25.6796 12.9887C25.4999 12.682 25.2416 12.4287 24.9314 12.255Z" fill="#125BFF"/>
</svg>
