<svg id="SvgjsSvg1001" width="288" height="288" xmlns="http://www.w3.org/2000/svg" version="1.1" xmlns:xlink="http://www.w3.org/1999/xlink" xmlns:svgjs="http://svgjs.com/svgjs"><defs id="SvgjsDefs1002"></defs><g id="SvgjsG1008" transform="matrix(1,0,0,1,0,0)"><svg xmlns="http://www.w3.org/2000/svg" width="288" height="288" fill="none" viewBox="0 0 20 20"><path stroke="#125bff" stroke-linecap="round" stroke-linejoin="round" stroke-width="1.5" d="M17.8125 1.40625H2.1875C1.75603 1.40625 1.40625 1.75603 1.40625 2.1875V17.8125C1.40625 18.244 1.75603 18.5938 2.1875 18.5938H17.8125C18.244 18.5938 18.5938 18.244 18.5938 17.8125V2.1875C18.5938 1.75603 18.244 1.40625 17.8125 1.40625zM14.166 2.1875L14.166 17.8125M5.83398 2.1875L5.83398 17.8125M1.66602 5.83333H5.83268M14.166 5.83333H18.3327M1.66602 10H5.83268M14.166 10H18.3327M1.66602 14.1667H5.83268M14.166 14.1667H18.3327" fill="#000000" class="color000 svgShape colorStroke9D9CAB svgStroke"></path></svg></g></svg>