<svg width="48" height="48" viewBox="0 0 48 48" fill="none" xmlns="http://www.w3.org/2000/svg">
<path opacity="0.2" d="M4.5 36V31.7117C4.5 20.9344 13.1538 12.0374 23.931 12.0001C26.4976 11.991 29.0407 12.4887 31.4145 13.4646C33.7883 14.4405 35.9461 15.8754 37.7642 17.6871C39.5822 19.4987 41.0248 21.6514 42.009 24.0217C42.9933 26.3921 43.5 28.9334 43.5 31.5V36C43.5 36.3978 43.342 36.7794 43.0607 37.0607C42.7794 37.342 42.3978 37.5 42 37.5H6C5.60218 37.5 5.22064 37.342 4.93934 37.0607C4.65804 36.7794 4.5 36.3978 4.5 36Z" fill="#125BFF"/>
<path d="M30.75 31.5C31.9926 31.5 33 30.4926 33 29.25C33 28.0074 31.9926 27 30.75 27C29.5074 27 28.5 28.0074 28.5 29.25C28.5 30.4926 29.5074 31.5 30.75 31.5Z" fill="#125BFF"/>
<path d="M17.25 31.5C18.4926 31.5 19.5 30.4926 19.5 29.25C19.5 28.0074 18.4926 27 17.25 27C16.0074 27 15 28.0074 15 29.25C15 30.4926 16.0074 31.5 17.25 31.5Z" fill="#125BFF"/>
<path d="M4.5 36V31.7117C4.5 20.9344 13.1538 12.0374 23.931 12.0001C26.4976 11.991 29.0407 12.4887 31.4145 13.4646C33.7883 14.4405 35.9461 15.8754 37.7642 17.6871C39.5822 19.4987 41.0248 21.6514 42.009 24.0217C42.9933 26.3921 43.5 28.9334 43.5 31.5V36C43.5 36.3978 43.342 36.7794 43.0607 37.0607C42.7794 37.342 42.3978 37.5 42 37.5H6C5.60218 37.5 5.22064 37.342 4.93934 37.0607C4.65804 36.7794 4.5 36.3978 4.5 36Z" stroke="#125BFF" stroke-width="3" stroke-linecap="round" stroke-linejoin="round"/>
<path d="M6 10.5L11.8261 16.3261" stroke="#125BFF" stroke-width="3" stroke-linecap="round" stroke-linejoin="round"/>
<path d="M42.0002 10.5L36.207 16.2931" stroke="#125BFF" stroke-width="3" stroke-linecap="round" stroke-linejoin="round"/>
</svg>
