<svg width="48" height="48" viewBox="0 0 48 48" fill="none" xmlns="http://www.w3.org/2000/svg">
<path opacity="0.2" d="M8.46111 36.7533C8.50787 36.9505 8.59404 37.1362 8.71443 37.2992C8.83482 37.4622 8.98694 37.5992 9.16164 37.7018C9.33634 37.8045 9.53001 37.8708 9.731 37.8967C9.93198 37.9226 10.1361 37.9075 10.3312 37.8525C19.2729 35.3836 28.7163 35.3827 37.6585 37.8499C37.8535 37.9049 38.0576 37.9199 38.2585 37.894C38.4594 37.8681 38.653 37.8019 38.8276 37.6993C39.0023 37.5966 39.1544 37.4597 39.2747 37.2968C39.3951 37.1339 39.4813 36.9483 39.5281 36.7513L44.3073 16.4418C44.3713 16.17 44.3581 15.8856 44.2692 15.6208C44.1803 15.356 44.0192 15.1213 43.8041 14.9431C43.589 14.7649 43.3284 14.6504 43.0517 14.6123C42.775 14.5742 42.4932 14.6141 42.238 14.7275L32.7535 18.9428C32.411 19.0951 32.024 19.1135 31.6685 18.9947C31.3131 18.8758 31.0151 18.6282 30.8331 18.3006L25.3107 8.3604C25.1808 8.12656 24.9907 7.93172 24.7602 7.79606C24.5296 7.6604 24.267 7.58887 23.9995 7.58887C23.732 7.58887 23.4694 7.6604 23.2388 7.79606C23.0082 7.93172 22.8182 8.12656 22.6883 8.3604L17.1659 18.3006C16.9839 18.6282 16.6859 18.8758 16.3304 18.9947C15.975 19.1135 15.588 19.0951 15.2455 18.9428L5.7596 14.7269C5.50441 14.6135 5.22263 14.5735 4.94597 14.6116C4.66932 14.6497 4.40878 14.7642 4.1937 14.9423C3.97861 15.1204 3.81751 15.355 3.72855 15.6197C3.63958 15.8844 3.62628 16.1687 3.69013 16.4406L8.46111 36.7533Z" fill="#125BFF"/>
<path d="M8.46111 36.7533C8.50787 36.9505 8.59404 37.1362 8.71443 37.2992C8.83482 37.4622 8.98694 37.5992 9.16164 37.7018C9.33634 37.8045 9.53001 37.8708 9.731 37.8967C9.93198 37.9226 10.1361 37.9075 10.3312 37.8525C19.2729 35.3836 28.7163 35.3827 37.6585 37.8499C37.8535 37.9049 38.0576 37.9199 38.2585 37.894C38.4594 37.8681 38.653 37.8019 38.8276 37.6993C39.0023 37.5966 39.1544 37.4597 39.2747 37.2968C39.3951 37.1339 39.4813 36.9483 39.5282 36.7513L44.3073 16.4418C44.3713 16.17 44.3581 15.8856 44.2692 15.6208C44.1803 15.356 44.0192 15.1213 43.8041 14.9431C43.589 14.7649 43.3284 14.6504 43.0517 14.6123C42.775 14.5742 42.4932 14.6141 42.238 14.7275L32.7535 18.9428C32.411 19.0951 32.024 19.1135 31.6685 18.9947C31.3131 18.8758 31.0151 18.6282 30.8331 18.3006L25.3107 8.3604C25.1808 8.12656 24.9907 7.93172 24.7602 7.79606C24.5296 7.6604 24.267 7.58887 23.9995 7.58887C23.732 7.58887 23.4694 7.6604 23.2388 7.79606C23.0082 7.93172 22.8182 8.12656 22.6883 8.3604L17.1659 18.3006C16.9839 18.6282 16.6859 18.8758 16.3304 18.9947C15.975 19.1135 15.588 19.0951 15.2455 18.9428L5.7596 14.7269C5.50441 14.6135 5.22263 14.5735 4.94597 14.6116C4.66932 14.6497 4.40878 14.7642 4.1937 14.9423C3.97861 15.1204 3.81751 15.355 3.72855 15.6197C3.63958 15.8844 3.62628 16.1687 3.69013 16.4406L8.46111 36.7533Z" stroke="#125BFF" stroke-width="3" stroke-linecap="round" stroke-linejoin="round"/>
</svg>
