<svg width="28" height="28" viewBox="0 0 28 28" fill="none" xmlns="http://www.w3.org/2000/svg">
<path d="M14 19.6875C16.4162 19.6875 18.375 17.7287 18.375 15.3125C18.375 12.8963 16.4162 10.9375 14 10.9375C11.5838 10.9375 9.625 12.8963 9.625 15.3125C9.625 17.7287 11.5838 19.6875 14 19.6875Z" stroke="#125BFF" stroke-width="1.5" stroke-linecap="round" stroke-linejoin="round"/>
<path d="M21.4375 12.6875C22.4564 12.6867 23.4615 12.9234 24.3729 13.379C25.2842 13.8346 26.0768 14.4965 26.6876 15.312" stroke="#125BFF" stroke-width="1.5" stroke-linecap="round" stroke-linejoin="round"/>
<path d="M1.3125 15.3123C1.9233 14.4967 2.71589 13.8347 3.62731 13.3791C4.53872 12.9235 5.54384 12.6867 6.56281 12.6875" stroke="#125BFF" stroke-width="1.5" stroke-linecap="round" stroke-linejoin="round"/>
<path d="M7.70312 23.6249C8.27791 22.4443 9.17305 21.4491 10.2864 20.7529C11.3997 20.0567 12.6863 19.6875 13.9994 19.6875C15.3124 19.6875 16.5991 20.0567 17.7124 20.7529C18.8257 21.4491 19.7208 22.4443 20.2956 23.6249" stroke="#125BFF" stroke-width="1.5" stroke-linecap="round" stroke-linejoin="round"/>
<path d="M6.56185 12.6875C5.89776 12.6874 5.24742 12.4983 4.68676 12.1424C4.1261 11.7865 3.67826 11.2785 3.39553 10.6776C3.11281 10.0767 3.00687 9.40775 3.09009 8.7489C3.17331 8.09005 3.44225 7.46847 3.86551 6.95675C4.28877 6.44503 4.84887 6.06428 5.48042 5.85897C6.11197 5.65366 6.7889 5.63226 7.43216 5.79726C8.07541 5.96227 8.65845 6.30688 9.11319 6.79084C9.56793 7.2748 9.8756 7.87815 10.0003 8.53042" stroke="#125BFF" stroke-width="1.5" stroke-linecap="round" stroke-linejoin="round"/>
<path d="M18 8.53107C18.1246 7.8787 18.4323 7.27524 18.887 6.79117C19.3418 6.3071 19.9249 5.9624 20.5682 5.79733C21.2115 5.63226 21.8885 5.65363 22.5202 5.85895C23.1518 6.06426 23.712 6.44505 24.1353 6.95684C24.5587 7.46862 24.8276 8.09029 24.9108 8.74922C24.9941 9.40816 24.8881 10.0772 24.6053 10.6781C24.3225 11.2791 23.8746 11.7872 23.3138 12.1431C22.7531 12.499 22.1026 12.688 21.4384 12.6881" stroke="#125BFF" stroke-width="1.5" stroke-linecap="round" stroke-linejoin="round"/>
</svg>
