<svg width="28" height="28" viewBox="0 0 28 28" fill="none" xmlns="http://www.w3.org/2000/svg">
<path d="M3.72658 15.3936C2.74816 13.7443 2.40551 11.7944 2.76297 9.91031C3.12043 8.02618 4.15341 6.33735 5.66793 5.16094C7.18246 3.98452 9.07435 3.40146 10.9883 3.52124C12.9023 3.64101 14.7068 4.45538 16.0628 5.81142C17.4189 7.16747 18.2333 8.9719 18.353 10.8859C18.4728 12.7999 17.8898 14.6918 16.7134 16.2063C15.537 17.7208 13.8481 18.7538 11.964 19.1113C10.0799 19.4688 8.13005 19.1261 6.48067 18.1477L6.48069 18.1476L3.76082 18.9248C3.64829 18.9569 3.52921 18.9584 3.41592 18.929C3.30263 18.8997 3.19925 18.8405 3.11649 18.7578C3.03374 18.675 2.97462 18.5717 2.94526 18.4584C2.91591 18.3451 2.91738 18.226 2.94953 18.1135L3.72664 15.3936L3.72658 15.3936Z" stroke="#125BFF" stroke-width="2" stroke-linecap="round" stroke-linejoin="round"/>
<path d="M10.0684 19.2384C10.4555 20.3374 11.0815 21.3369 11.9014 22.1648C12.7213 22.9928 13.7145 23.6286 14.8097 24.0265C15.9048 24.4244 17.0746 24.5744 18.2347 24.4659C19.3948 24.3573 20.5164 23.9928 21.5187 23.3986L21.5187 23.3985L24.2386 24.1756C24.3511 24.2078 24.4702 24.2093 24.5835 24.1799C24.6968 24.1505 24.8002 24.0914 24.8829 24.0087C24.9657 23.9259 25.0248 23.8225 25.0542 23.7092C25.0835 23.596 25.082 23.4769 25.0499 23.3643L24.2728 20.6445L24.2728 20.6445C24.9633 19.4801 25.342 18.1573 25.3724 16.8038C25.4028 15.4504 25.0839 14.112 24.4464 12.9177C23.8089 11.7234 22.8744 10.7135 21.733 9.98558C20.5916 9.25762 19.2818 8.83611 17.9301 8.76172" stroke="#125BFF" stroke-width="2" stroke-linecap="round" stroke-linejoin="round"/>
</svg>
