<svg width="36" height="36" viewBox="0 0 36 36" fill="none" xmlns="http://www.w3.org/2000/svg">
<path d="M13.0045 17.5516C14.1714 19.9374 16.1053 21.8625 18.4964 23.0185C18.6713 23.1014 18.8648 23.1374 19.0578 23.1227C19.2509 23.1081 19.4368 23.0435 19.5973 22.9352L23.1179 20.5876C23.2736 20.4838 23.4528 20.4204 23.6391 20.4033C23.8255 20.3862 24.0132 20.4158 24.1852 20.4896L30.7717 23.3123C30.9954 23.4074 31.1822 23.5725 31.3039 23.783C31.4256 23.9934 31.4756 24.2377 31.4464 24.479C31.2382 26.1081 30.4434 27.6053 29.2108 28.6905C27.9782 29.7757 26.3923 30.3744 24.75 30.3745C19.6777 30.3745 14.8132 28.3595 11.2266 24.7729C7.63995 21.1862 5.625 16.3217 5.625 11.2495C5.62509 9.60721 6.22377 8.0213 7.30896 6.78867C8.39414 5.55604 9.89141 4.76122 11.5204 4.55304C11.7618 4.52384 12.006 4.57386 12.2165 4.69556C12.4269 4.81726 12.5921 5.00405 12.6871 5.2278L15.5124 11.82C15.5854 11.9905 15.6152 12.1764 15.599 12.3613C15.5829 12.5461 15.5212 12.724 15.4197 12.8792L13.0802 16.4539C12.9737 16.6147 12.9107 16.8003 12.8975 16.9928C12.8842 17.1852 12.9211 17.3777 13.0045 17.5516V17.5516Z" stroke="#125BFF" stroke-width="2" stroke-linecap="round" stroke-linejoin="round"/>
</svg>
